<?xml version="1.0" encoding="UTF-8"?>
<svg width="826px" height="121px" viewBox="0 0 826 121" version="1.1" xmlns="http://www.w3.org/2000/svg" xmlns:xlink="http://www.w3.org/1999/xlink">
    <!-- Generator: Sketch 60.1 (88133) - https://sketch.com -->
    <title>Landscape_Logo_Coloured</title>
    <desc>Created with Sketch.</desc>
    <defs>
        <polygon id="path-1" points="0.06 0.689 90.629 0.689 90.629 110.719 0.06 110.719"/>
        <polygon id="path-3" points="0.623374876 0.968358313 169.889673 0.968358313 169.889673 120.94 0.623374876 120.94"/>
    </defs>
    <g id="Landscape_Logo_Coloured" stroke="none" stroke-width="1" fill="none" fill-rule="evenodd">
        <g id="Group-3" transform="translate(0.000000, 10.000000)">
            <mask id="mask-2" fill="white">
                <use xlink:href="#path-1"/>
            </mask>
            <g id="Clip-2"/>
            <path d="M31.881,18.667 C31.881,17.322 32.978,16.178 34.37,16.178 L44.844,16.178 C54.44,16.178 59.447,23.721 59.447,31.155 C59.447,38.496 54.269,45.914 42.713,45.914 L34.37,45.914 C32.978,45.914 31.881,44.825 31.881,43.426 L31.881,18.667 Z M88.125,95.058 L85.808,95.058 C83.094,95.058 79.059,93.293 79.059,88.488 C79.059,77.625 75.8,67.772 69.384,59.171 C68.653,58.192 68.763,56.777 69.626,55.929 C76.149,49.39 79.059,41.738 79.059,31.155 C79.059,16.412 70.629,0.689 46.967,0.689 L2.481,0.689 C1.111,0.689 0,1.801 0,3.185 L0,13.706 C0,15.074 1.111,16.178 2.481,16.178 L9.789,16.178 C11.158,16.178 12.293,17.322 12.293,18.667 L12.293,92.578 C12.293,93.931 11.158,95.058 9.789,95.058 L2.481,95.058 C1.111,95.058 0,96.17 0,97.562 L0,108.223 C0,109.615 1.111,110.719 2.481,110.719 L39.867,110.719 C41.251,110.719 42.355,109.615 42.355,108.223 L42.355,97.562 C42.355,96.17 41.251,95.058 39.867,95.058 L34.37,95.058 C32.978,95.058 31.881,93.931 31.881,92.578 L31.881,63.9 C31.881,63.208 32.184,62.508 32.713,62.042 C33.179,61.628 33.825,61.435 34.68,61.435 C51.578,63.643 59.447,80.135 59.447,90.602 C59.447,103.347 66.539,108.712 69.548,110.4 C69.944,110.626 70.349,110.719 70.769,110.719 L88.125,110.719 C89.501,110.719 90.629,109.615 90.629,108.223 L90.629,97.562 C90.629,96.17 89.501,95.058 88.125,95.058 L88.125,95.058 Z" id="Fill-1" fill="#D8223A" mask="url(#mask-2)"/>
        </g>
        <path d="M116.718,69.709 L116.22,69.646 C111.779,69.11 108.413,66.855 106.212,62.943 C103.786,58.659 102.961,52.78 103.801,45.914 C105.419,32.671 111.966,24.864 120.893,25.548 L121.577,25.649 C125.527,26.124 128.529,28.324 130.582,32.244 C132.821,36.559 133.614,42.702 132.79,49.437 C131.266,62.01 124.664,70.307 116.718,69.709 Z M123.397,10.945 C106.492,8.861 88.063,18.146 84.944,43.605 C81.663,70.502 98.024,82.252 114.408,84.226 C130.815,86.232 149.508,78.775 152.821,51.878 C155.916,26.466 140.286,12.991 123.397,10.945 L123.397,10.945 Z" id="Fill-4" fill="#2A6C38"/>
        <g id="Group-8" transform="translate(143.000000, 0.000000)">
            <mask id="mask-4" fill="white">
                <use xlink:href="#path-3"/>
            </mask>
            <g id="Clip-6"/>
            <path d="M52.115,60.478 C51.75,61.209 51.081,61.746 50.272,61.901 L31.687,64.957 C31.034,64.919 30.443,64.654 29.984,64.203 C29.432,63.596 29.199,62.772 29.37,62.01 L34.409,38.434 C34.588,37.469 35.373,36.746 36.454,36.528 C36.609,36.528 36.789,36.489 36.967,36.489 C37.69,36.528 38.437,36.956 38.865,37.648 L51.952,58.153 C52.372,58.846 52.434,59.709 52.115,60.478 Z M102.853,98.713 L101.135,88.518 C100.932,87.181 99.665,86.271 98.359,86.489 L95.606,86.909 C94.875,86.878 94.175,86.528 93.74,85.953 C92.123,83.869 72.729,53.962 40.583,3.962 C40.008,3.107 39.059,2.687 38.086,2.85 L30.179,4.18 C29.23,4.328 28.453,5.051 28.196,6.039 C26.213,14.444 8.608,88.565 6.944,100.058 C6.781,101.139 5.972,101.948 4.906,102.134 L2.683,102.531 C2.029,102.625 1.439,102.998 1.073,103.496 C0.677,104.032 0.552,104.685 0.661,105.33 L2.372,115.516 C2.574,116.699 3.554,117.554 4.689,117.57 C4.86,117.57 5.016,117.57 5.187,117.554 L30.249,113.347 C30.879,113.215 31.439,112.889 31.827,112.352 C32.201,111.807 32.356,111.155 32.24,110.525 L30.567,100.47 C30.474,99.848 30.109,99.273 29.557,98.892 C29.06,98.519 28.391,98.355 27.745,98.457 L26.213,98.674 C25.591,98.659 24.992,98.402 24.557,97.951 C23.989,97.383 23.748,96.567 23.903,95.781 L26.306,82.951 C26.524,81.948 27.325,81.17 28.313,81.014 L60.256,75.696 C61.018,75.727 61.703,76.092 62.154,76.692 C63.732,78.877 65.14,81.014 66.523,83.106 L66.796,83.542 C67.783,85.011 68.755,86.458 69.759,87.874 C70.233,88.565 70.334,89.452 70.007,90.245 C69.681,91.03 68.981,91.559 68.165,91.683 L67.099,91.862 C65.761,92.119 64.875,93.363 65.086,94.709 L66.773,104.747 C66.99,106.077 68.25,106.955 69.603,106.73 L100.839,101.504 C101.485,101.418 102.06,101.069 102.448,100.548 C102.83,100.003 102.978,99.327 102.853,98.713 L102.853,98.713 Z" id="Fill-5" fill="#F1AD39" mask="url(#mask-4)"/>
            <path d="M169.245,89.553 C168.763,89.008 168.078,88.706 167.378,88.706 L156.834,88.791 C155.566,88.791 154.533,89.709 154.37,90.929 L153.833,94.934 C153.397,99.63 151.391,104.972 139.494,105.058 L131.127,105.135 C129.743,105.152 128.63,104.032 128.615,102.671 L127.954,19.134 C127.923,17.773 129.043,16.646 130.427,16.614 L132.907,16.614 C134.284,16.614 135.388,15.502 135.372,14.094 L135.294,3.434 C135.294,2.034 134.16,0.938 132.775,0.968358313 L103.398,1.179 C102.021,1.179 100.909,2.314 100.92385,3.706 L101.003,14.382 C101.033,15.774 102.153,16.863 103.507,16.847 L105.855,16.847 C107.231,16.801 108.343,17.936 108.366,19.297 L109.035,102.834 C109.035,104.187 107.931,105.33 106.547,105.354 L104.238,105.354 C102.853,105.354 101.756,106.489 101.756,107.865 L101.857,118.542 C101.857,119.926 102.978,121.038 104.339,120.999995 L163.981,120.517 C165.24,120.517 166.274,119.615 166.438,118.371 L169.866,91.489 C169.967,90.797 169.742,90.089 169.245,89.553" id="Fill-7" fill="#97196A" mask="url(#mask-4)"/>
        </g>
        <path d="M351.824,100.385 C350.627,100.214 349.693,99.242 349.631,98.045 L345.557,24.74 C345.44,23.387 346.537,22.213 347.874,22.127 L356.412,21.653 C358.737,21.528 361.031,21.575 363.224,21.839 C383.154,24.103 392.99,42.057 393.955,58.807 C395.013,77.741 386.848,98.457 360.782,99.903 L351.824,100.385 Z M415.798,57.586 C414.25,29.717 395.557,8.923 369.251,5.938 C366.016,5.564 362.648,5.463 359.274,5.65 L315.332,8.115 C313.971,8.169 312.929,9.344 313.006,10.735 L313.613,21.559 C313.644,22.213 313.924,22.819 314.438,23.262 C314.951,23.706 315.573,23.954 316.226,23.892 L321.498,23.636 C322.727,23.783 323.621,24.74 323.707,25.961 L327.781,99.273 C327.828,99.95 327.595,100.572 327.159,101.069 C326.701,101.543 326.086,101.862 325.433,101.893 L320.611,102.134 C319.228,102.236 318.17,103.394 318.248,104.786 L318.846,115.431 C318.916,116.699 319.85,117.664 321.062,117.78 C321.171,117.78 321.327,117.78 321.459,117.78 L365.385,115.338 C395.385,113.658 417.523,88.294 415.798,57.586 L415.798,57.586 Z" id="Fill-9" fill="#5FA6CF"/>
        <path d="M507.457,23.657 C507.457,22.272 508.6,21.145 509.969,21.145 L518.49,21.145 C542.815,21.145 553.903,41.472 553.903,60.328 C553.903,79.302 544.587,99.535 518.49,99.535 L509.969,99.535 C508.6,99.535 507.457,98.4 507.457,97.062 L507.457,23.657 Z M522.255,5.336 L478.235,5.336 C476.866,5.336 475.754,6.456 475.754,7.833 L475.754,18.649 C475.754,20.033 476.866,21.145 478.235,21.145 L483.118,21.145 C484.479,21.145 485.599,22.272 485.599,23.657 L485.599,97.062 C485.599,98.4 484.479,99.535 483.118,99.535 L478.235,99.535 C476.866,99.535 475.754,100.655 475.754,102.039 L475.754,112.7 C475.754,114.091 476.866,115.188 478.235,115.188 L522.255,115.188 C552.27,115.188 575.784,91.098 575.784,60.328 C575.784,28.47 553.265,5.336 522.255,5.336 L522.255,5.336 Z" id="Fill-10" fill="#2A6C38"/>
        <path d="M625.504,36.386 L625.201,38.835 C626.025,38.936 626.889,39.706 627.138,40.601 L634.089,64.333 C634.307,65.149 634.143,66.02 633.591,66.634 C633.047,67.311 632.207,67.584 631.398,67.521 L612.86,65.304 C612.036,65.219 611.314,64.713 610.948,63.999 C610.552,63.259 610.552,62.397 610.948,61.65 L622.58,40.134 C623.055,39.216 624.02,38.703 625.131,38.835 L625.504,36.386 Z M671.352,105.211 L669.05,104.955 C668.132,104.83 667.339,104.262 666.997,103.391 C665.815,100.39 651.445,52.249 638.397,8.174 C638.102,7.226 637.277,6.503 636.298,6.402 L628.21,5.421 C627.215,5.336 626.235,5.795 625.737,6.681 C615.737,24.248 582.782,82.443 578.219,92.49 C577.76,93.461 576.733,94.037 575.637,93.935 L573.351,93.656 C571.99,93.493 570.745,94.48 570.567,95.826 L569.346,106.277 C569.19,107.629 570.154,108.866 571.538,109.037 L597.184,112.078 C598.568,112.241 599.797,111.238 599.952,109.893 L601.181,99.589 C601.353,98.245 600.364,96.992 598.996,96.829 L597.899,96.712 C597.107,96.611 596.406,96.153 596.033,95.406 C595.629,94.691 595.629,93.85 595.994,93.12 L602.021,81.277 C602.48,80.367 603.498,79.846 604.524,79.955 L636.757,83.757 C637.682,83.858 638.475,84.457 638.786,85.375 C639.711,87.932 640.474,90.414 641.352,93.206 C641.911,94.962 642.448,96.712 643.047,98.447 C643.327,99.254 643.164,100.133 642.627,100.826 C642.082,101.495 641.242,101.805 640.396,101.72 L639.33,101.626 C637.961,101.417 636.717,102.412 636.554,103.781 L635.333,114.044 C635.178,115.436 636.142,116.658 637.494,116.821 L669.532,120.615 C670.916,120.755 672.129,119.783 672.3,118.43 L673.536,107.987 C673.699,106.619 672.72,105.375 671.352,105.211 L671.352,105.211 Z" id="Fill-11" fill="#5FA6CF"/>
        <g id="Group-15" transform="translate(666.000000, 1.000000)">
            <path d="M85.498,78.013 C85.352,76.101 83.5,74.522 80.981,74.414 L76.829,16.28 C77.839,16.179 78.773,15.744 79.441,14.935 C80.125,14.166 80.437,13.146 80.374,12.136 L79.721,3.862 C79.565,1.879 77.917,0.339 75.631,0.339 C75.631,0.339 75.607,0.339 75.584,0.339 L52.582,2.121 C50.468,2.292 48.89,4.142 49.053,6.249 L49.706,14.546 C49.854,16.521 51.533,18.069 53.804,18.069 C53.804,18.069 53.812,18.069 53.842,18.069 L55.872,17.983 L57.303,37.423 L27.918,39.624 L26.518,20.2 L28.462,20.045 C29.487,19.958 30.406,19.484 31.075,18.722 C31.728,17.937 32.077,16.918 31.992,15.907 L31.355,7.634 C31.207,5.65 29.52,4.126 27.232,4.126 L4.208,5.915 C3.221,5.97 2.265,6.443 1.604,7.229 C0.942,8.006 0.608,8.979 0.687,10.036 L1.331,18.318 C1.486,20.238 3.314,21.802 5.849,21.902 L10.01,80.051 C9.007,80.153 8.042,80.595 7.404,81.374 C6.72,82.174 6.378,83.185 6.471,84.188 L7.117,92.461 C7.273,94.453 8.959,95.992 10.95,95.992 L34.255,94.196 C35.273,94.133 36.207,93.667 36.876,92.881 C37.528,92.088 37.848,91.086 37.762,90.067 L37.14,81.793 C36.961,79.81 35.134,78.1 33.019,78.255 L30.966,78.34 L29.286,55.658 L58.655,53.45 L60.32,76.155 L58.368,76.311 C57.357,76.374 56.425,76.84 55.771,77.648 C55.109,78.387 54.775,79.382 54.854,80.394 L55.476,88.683 C55.647,90.673 57.24,92.244 59.597,92.206 L82.613,90.424 C83.625,90.354 84.565,89.887 85.226,89.094 C85.888,88.309 86.23,87.322 86.159,86.288 L85.498,78.013 L85.498,78.013 Z" id="Fill-12" fill="#D8223A"/>
            <path d="M159.402,77.656 C158.943,77.104 158.243,76.754 157.544,76.754 L146.983,76.583 C145.732,76.583 144.682,77.47 144.495,78.706 L143.857,82.664 C143.196,88.34 139.044,98.916 128.049,98.76 L117.186,98.589 C115.833,98.582 114.713,97.447 114.744,96.093 L115.833,22.533 C115.864,21.156 117.007,20.045 118.353,20.083 L120.849,20.113 C122.225,20.145 123.36,19.033 123.407,17.649 L123.531,6.98 C123.546,5.58 122.45,4.469 121.09,4.469 L91.695,4.025 C90.328,3.979 89.2,5.099 89.161,6.474 L89.022,17.151 C88.99,18.527 90.095,19.655 91.471,19.655 L93.787,19.694 C95.148,19.725 96.253,20.86 96.253,22.221 L95.148,95.783 C95.103,97.158 93.982,98.254 92.629,98.254 L90.289,98.201 C88.912,98.162 87.792,99.258 87.777,100.65 L87.637,111.311 C87.59,112.71 88.687,113.845 90.07,113.876 L152.178,114.787 C153.438,114.787 154.48,113.908 154.682,112.687 L159.939,79.647 C160.07,78.932 159.884,78.201 159.402,77.656" id="Fill-14" fill="#2A6C38"/>
        </g>
    </g>
</svg>